<svg xmlns="http://www.w3.org/2000/svg" version="1.1" xmlns:xlink="http://www.w3.org/1999/xlink" xmlns:svgjs="http://svgjs.dev/svgjs" viewBox="0 0 4.825832120128874 3.6450617279139914"><g transform="matrix(1,0,0,1,2.4123417846056006,3.483741919632858)"><rect width="4.825832120128874" height="3.6450617279139914" x="-2.4123417846056006" y="-3.483741919632858" fill="#ffffff"></rect><g><path d=" M -1.7510453140842785 -2.203610528809272 Q -1.7398844841504428 -2.2225693229478245 -1.715189095523429 -2.232980268176801 Q -1.6904937068964152 -2.2433912134057783 -1.6672260959081924 -2.2296938312142522 Q -1.650852591879443 -2.2200549326350307 -1.6415814341722252 -2.19835134687673 L -1.4118937591036604 -1.6186992340352453 L -1.4214285380018532 -1.6103873154021873 L -1.2519868471881628 -1.8982162809602037 Q -1.238796775448175 -1.9206221285784923 -1.2165615103122802 -1.9278396755535017 Q -1.1943262451763856 -1.9350572225285108 -1.1719203975580967 -1.9218671507885228 Q -1.1503763133097422 -1.9091843895000729 -1.1450351506077432 -1.8857329080758478 Q -1.1396939879057442 -1.8622814266516228 -1.1528840596457322 -1.839875579033334 L -1.375593347870912 -1.4615614596322288 Q -1.3887834196108997 -1.4391556120139402 -1.4143649405339038 -1.4321673513386435 Q -1.4399464614569082 -1.425179090663347 -1.4589052555954602 -1.436339920597183 Q -1.4752787596242096 -1.445978819176405 -1.4845499173314272 -1.4676824049347053 L -1.7154538086883222 -2.0492109020492 L -1.7057174344048753 -2.05392290966938 L -1.8594325012208879 -1.792808608579323 Q -1.8726225729608756 -1.7704027609610344 -1.8952887197817374 -1.7634388692117942 Q -1.9179548666025994 -1.7564749774625539 -1.9403607142208878 -1.7696650492025416 Q -1.9627665618391767 -1.7828551209425296 -1.9672459611712416 -1.8057992919152168 Q -1.9717253605033065 -1.8287434628879038 -1.9585352887633185 -1.8511493105061925 Z M -0.9763754154043258 -2.6782888162425835 Q -0.9548838526507222 -2.6929214076196404 -0.9312642134114442 -2.6884366955657444 Q -0.9076445741721662 -2.6839519835118484 -0.8924491908190688 -2.6616338221907982 L -0.654388184953876 -2.3119826281610156 Q -0.6397555935768192 -2.290491065407412 -0.643958909642695 -2.266458126884411 Q -0.6481622257085706 -2.24242518836141 -0.6696537884621744 -2.227792596984353 Q -0.691145351215778 -2.213160005607296 -0.7150463864430763 -2.2180580169449153 Q -0.7389474216703746 -2.2229560282825345 -0.7535800130474314 -2.2444475910361383 L -0.781156819873423 -2.284950920841007 L -0.7579065236052387 -2.2898929572068845 Q -0.7505902279167103 -2.2791471758300825 -0.7517509563042065 -2.255976014667757 Q -0.7529116846917028 -2.2328048535054315 -0.7626197947416822 -2.2044190718664227 Q -0.7723279047916616 -2.176033290227414 -0.7921574585331581 -2.1474100689130142 Q -0.8119870122746546 -2.118786847598615 -0.8433977578376138 -2.09740075250907 Q -0.9004330589914081 -2.058568106162266 -0.9667016939178436 -2.056396004648333 Q -1.0329703288442789 -2.0542239031344005 -1.0950092807888239 -2.0875955743784727 Q -1.1570482327333687 -2.1209672456225452 -1.2026343827926609 -2.187921729585695 Q -1.2487833248279938 -2.2557028121162914 -1.2570933698885294 -2.3256559618030055 Q -1.2654034149490652 -2.39560911148972 -1.239919608888962 -2.4559069193162992 Q -1.2144358028288587 -2.516204727142878 -1.159053698809957 -2.553911789537601 Q -1.1235099604097663 -2.5781118445073488 -1.0864361162931713 -2.5876265742680102 Q -1.0493622721765763 -2.5971413040286717 -1.0162015706184366 -2.5955233200448227 Q -0.983040869060297 -2.593905336060974 -0.9595179543234924 -2.5851205490809144 Q -0.9359950395866878 -2.5763357621008547 -0.9281159519221189 -2.5647633821566065 L -0.950557204661657 -2.533757089642341 L -0.9916410189126241 -2.594098785065921 Q -1.006273610289681 -2.6155903478195244 -1.0020702942238051 -2.639623286342526 Q -0.9978669781579295 -2.6636562248655267 -0.9763754154043258 -2.6782888162425835 Z M -0.8929058966903903 -2.1967684745687723 Q -0.8565355597227534 -2.2215313215145605 -0.8416392304699198 -2.2582886252077206 Q -0.8267429012170864 -2.29504592890088 -0.8328369228088743 -2.3368683260205914 Q -0.8389309444006624 -2.3786907231403025 -0.8653821672745727 -2.4175408558102784 Q -0.8923961821245237 -2.4572175870477 -0.9290743507118246 -2.4782166810539077 Q -0.9657525192991256 -2.499215775060115 -1.0054116954977474 -2.498828808334592 Q -1.0450708716963695 -2.4984418416090692 -1.0814412086640064 -2.473678994663281 Q -1.116984947064197 -2.4494789396935333 -1.1318812763170305 -2.4127216360003736 Q -1.1467776055698642 -2.3759643323072135 -1.140683583978076 -2.3341419351875023 Q -1.134589562386288 -2.292319538067791 -1.107575547536337 -2.2526428068303694 Q -1.0811243246624267 -2.2137926741603935 -1.0444461560751257 -2.192793580154186 Q -1.0077679874878247 -2.171794486147979 -0.9681088112892029 -2.172181452873502 Q -0.928449635090581 -2.1725684195990245 -0.8929058966903903 -2.1967684745687723 Z M -0.2966550972349616 -2.900338124888879 Q -0.2237794890003717 -2.9131890285317588 -0.18048098994684492 -2.889346000626064 Q -0.13718249089331813 -2.865502972720369 -0.11395927660940114 -2.817303571081726 Q -0.09073606232548415 -2.769104169443082 -0.07979542814303253 -2.7070614218920124 L -0.03533824797307017 -2.4549512096209987 Q -0.030823065612058387 -2.429346266187224 -0.0445256943449992 -2.4091599350245985 Q -0.05822832307794029 -2.3889736038619733 -0.08383326651171508 -2.384458421500961 Q -0.10943820994548992 -2.3799432391399495 -0.12921896877979294 -2.394225101061252 Q -0.1489997276140959 -2.408506962982554 -0.1535149099751077 -2.434111906416329 L -0.19797209014507 -2.6862221186873425 Q -0.20370289852635426 -2.7187207007379026 -0.2166757582091965 -2.743341929619689 Q -0.22964861789203872 -2.7679631585014746 -0.25409291301970166 -2.779899507847557 Q -0.2785372081473645 -2.791835857193639 -0.318914234331394 -2.7847157619320435 Q -0.35830645499873987 -2.777769327530487 -0.38261003294691753 -2.757236765612478 Q -0.40691361089509515 -2.7367042036944698 -0.4165912780959768 -2.708088775031789 Q -0.42626894529685844 -2.679473346369108 -0.4205381369155742 -2.6469747643185477 L -0.37608095674561187 -2.394864552047534 Q -0.3715657743846001 -2.3692596086137594 -0.38526840311754107 -2.349073277451134 Q -0.398971031850482 -2.3288869462885082 -0.42457597528425683 -2.3243717639274966 Q -0.4501809187180317 -2.319856581566485 -0.46996167755233464 -2.334138443487787 Q -0.48974243638663767 -2.3484203054090895 -0.49425761874764945 -2.374025248842864 L -0.5659795539437216 -2.7807499272332104 Q -0.5704947363047334 -2.806354870666985 -0.5567921075717923 -2.8265412018296106 Q -0.5430894788388514 -2.8467275329922357 -0.5174845354050766 -2.851242715353248 Q -0.4918795919713017 -2.8557578977142595 -0.47209883313699874 -2.841476035792957 Q -0.4523180743026957 -2.827194173871655 -0.44780289194168393 -2.80158923043788 L -0.4403354749600106 -2.7592425932204834 L -0.45562854029038197 -2.7595920968699503 Q -0.4497175252608907 -2.7778967383939226 -0.43636221824802757 -2.8000526805899155 Q -0.42300691123516443 -2.822208622785908 -0.40330861897210213 -2.842944516350425 Q -0.38361032670903983 -2.863680409914942 -0.3568744057556227 -2.8790570327812492 Q -0.33013848480220553 -2.894433655647556 -0.2966550972349616 -2.900338124888879 Z M 0.23679726522101366 -2.420352060158194 Q 0.23377568744994554 -2.394528232638374 0.2148571228795369 -2.379122457273425 Q 0.1959385583091283 -2.3637166819084756 0.17011473078930878 -2.366738259679544 Q 0.1442909032694893 -2.369759837450612 0.12943984723705704 -2.3891169068238813 Q 0.11458879120462474 -2.4084739761971505 0.11761036897569288 -2.43429780371697 L 0.16560696972381372 -2.8444993716279487 Q 0.16862854749488188 -2.8703231991477685 0.1875471120652905 -2.885728974512718 Q 0.20646567663569912 -2.901134749877667 0.2322895041555186 -2.8981131721065987 Q 0.2581133316753381 -2.895091594335531 0.2729643877077704 -2.8757345249622617 Q 0.2878154437402026 -2.8563774555889925 0.28479386596913453 -2.8305536280691728 Z M 0.2388502244478113 -2.962788955435804 Q 0.2050806038449704 -2.9667402494441237 0.1924538257759041 -2.9792927183484688 Q 0.17982704770683783 -2.991845187252814 0.1830810545372189 -3.0196554630433887 L 0.18528913060069177 -3.0385267216155647 Q 0.1886593519607293 -3.067330221541517 0.20527457862047616 -3.0759577497533073 Q 0.221889805280223 -3.0845852779650977 0.25367297761230856 -3.0808664130160905 Q 0.28843582235052706 -3.0767989044781143 0.3010626004195934 -3.0642464355737693 Q 0.3136893784886597 -3.0516939666694243 0.31043537165827856 -3.02388369087885 L 0.3082272955948057 -3.005012432306674 Q 0.30485707423476816 -2.9762089323807213 0.28873845964271017 -2.967523296904103 Q 0.2726198450506522 -2.9588376614274843 0.2388502244478113 -2.962788955435804 Z M 0.8962717327734353 -2.714300372478905 Q 0.9657427226427692 -2.6746294566012137 0.9796498145645637 -2.622352857684693 Q 0.9935569064863581 -2.5700762587681725 0.9737284816100181 -2.5111539916111516 L 0.963428874299025 -2.527399547595461 L 0.9783101564614968 -2.537326653981559 Q 1.0001361932567332 -2.5513489261873383 1.0349868684753856 -2.5619640303697766 Q 1.069837543694038 -2.572579134552215 1.109839194745271 -2.5710403320387725 Q 1.1498408457965041 -2.56950152952533 1.188049890224638 -2.5476825257925997 Q 1.2505737811070383 -2.511978701502677 1.267765827705683 -2.4664629511106417 Q 1.2849578743043275 -2.420947200718607 1.271577145435197 -2.369282840711627 Q 1.2581964165660664 -2.317618480704647 1.2269555703123838 -2.262910076182547 L 1.1000086395037698 -2.0406029086006785 Q 1.0871155918435202 -2.018024836893145 1.0636749936480416 -2.0112581274832375 Q 1.040234395452563 -2.0044914180733304 1.0176563237450296 -2.01738446573358 Q 0.995078252037496 -2.03027751339383 0.9889936795385077 -2.0539043620517563 Q 0.9829091070395193 -2.0775312107096826 0.9958021546997692 -2.100109282417216 L 1.122749085508383 -2.3224164499990847 Q 1.139113338307931 -2.351073233320185 1.145307230205483 -2.378052590302171 Q 1.151501122103035 -2.405031947284157 1.1411991704378734 -2.429339760675918 Q 1.1308972187727115 -2.453647574067679 1.0970301112114111 -2.4729871455580534 Q 1.0640313910234775 -2.4918308305999575 1.0326507487670389 -2.4913255667348113 Q 1.0012701065106004 -2.4908203028696656 0.9764058860856649 -2.4745025045298092 Q 0.9515416656607294 -2.458184706189953 0.9351774128611815 -2.4295279228688527 L 0.8082304820525675 -2.207220755286984 Q 0.7953374343923176 -2.1846426835794506 0.7718968361968391 -2.1778759741695435 Q 0.7484562380013606 -2.171109264759636 0.7258781662938271 -2.184002312419886 Q 0.7033000945862935 -2.196895360080136 0.6972155220873052 -2.2205222087380623 Q 0.6911309495883169 -2.2441490573959886 0.7040239972485667 -2.266727129103522 L 0.8309709280571806 -2.4890342966853907 Q 0.8473351808567285 -2.517691080006491 0.8535290727542805 -2.544670436988477 Q 0.8597229646518325 -2.571649793970463 0.8494210129866707 -2.595957607362224 Q 0.839119061321509 -2.620265420753985 0.8052519537602087 -2.6396049922443594 Q 0.7722532335722752 -2.658448677286263 0.7408725913158365 -2.6579434134211173 Q 0.7094919490593979 -2.6574381495559716 0.6846277286344624 -2.641120351216115 Q 0.6597635082095269 -2.624802552876259 0.643399255409979 -2.5961457695551586 L 0.516452324601365 -2.37383860197329 Q 0.5035592769411152 -2.3512605302657565 0.4801186787456367 -2.344493820855849 Q 0.4566780805501581 -2.337727111445942 0.43410000884262456 -2.350620159106192 Q 0.41152193713509105 -2.3635132067664415 0.4054373646361027 -2.387140055424368 Q 0.39935279213711433 -2.410766904082294 0.4122458397973642 -2.4333449757898276 L 0.6170469430159484 -2.791988960990264 Q 0.6299399906761982 -2.8145670326977976 0.6533805888716768 -2.821333742107705 Q 0.6768211870671553 -2.8281004515176122 0.6993992587746889 -2.8152074038573622 Q 0.7219773304822223 -2.8023143561971127 0.7280619029812108 -2.7786875075391864 Q 0.7341464754801992 -2.75506065888126 0.7212534278199493 -2.7324825871737266 L 0.6999303105356899 -2.695141930118959 L 0.6883921592806033 -2.7051853889661266 Q 0.7046377152649128 -2.71548499627712 0.728201698983967 -2.7244843668822316 Q 0.7517656827030211 -2.7334837374873433 0.7801686619144642 -2.73684093451974 Q 0.8085716411259072 -2.7401981315521375 0.8380932952891211 -2.7354313784152953 Q 0.8676149494523351 -2.730664625278453 0.8962717327734353 -2.714300372478905 Z M 1.6368928365671769 -1.5375427828597104 Q 1.565749896438401 -1.4967667841615375 1.493374802407525 -1.4973548011867144 Q 1.4209997083766495 -1.4979428182118912 1.360051820273664 -1.5338956336202285 Q 1.2991039321706788 -1.569848449028566 1.2613115431333477 -1.6357858081723096 Q 1.2235191540960166 -1.701723167316053 1.2233030441517425 -1.7724847621008795 Q 1.2230869342074684 -1.843246356885706 1.259161444031434 -1.9059929085117564 Q 1.2952359538553995 -1.9687394601378068 1.3663788939841754 -2.00951545883598 Q 1.4375218341129514 -2.050291457534153 1.509896928143827 -2.049703440508976 Q 1.5822720221747026 -2.049115423483799 1.6436537086931073 -2.013411242213865 Q 1.705035395211512 -1.9777070609439313 1.7428277842488433 -1.9117697018001878 Q 1.7806201732861742 -1.8458323426564442 1.780402484815029 -1.7748221137332143 Q 1.780184796343884 -1.7038118848099841 1.7441102865199183 -1.6410653331839338 Q 1.7080357766959526 -1.5783187815578834 1.6368928365671769 -1.5375427828597104 Z M 1.5772206433503382 -1.641654402560358 Q 1.6214680817231135 -1.6670150846775145 1.6438089632050226 -1.7034483800899705 Q 1.6661498446869318 -1.7398816755024265 1.667213622584704 -1.7802563999793095 Q 1.6682774004824763 -1.8206311244561924 1.6473921328565828 -1.8570701913514192 Q 1.6265068652306893 -1.8935092582466457 1.591131576233235 -1.9129987150976353 Q 1.5557562872357806 -1.9324881719486247 1.5130274064047848 -1.9316263466005565 Q 1.4702985255737893 -1.9307645212524887 1.426051087201014 -1.905403839135332 Q 1.3826712456590773 -1.8805404252949827 1.3603303641771682 -1.8441071298825267 Q 1.3379894826952592 -1.8076738344700707 1.336925704797487 -1.7672991099931878 Q 1.3358619268997147 -1.7269243855163048 1.356747194525608 -1.6904853186210782 Q 1.3776324621515017 -1.6540462517258514 1.413007751148956 -1.634556794874862 Q 1.4483830401464104 -1.6150673380238727 1.491111920977406 -1.6159291633719406 Q 1.5338408018084018 -1.6167909887200087 1.5772206433503382 -1.641654402560358 Z" fill="#404040" fill-rule="nonzero"></path></g><g clip-path="url(&quot;#SvgjsClipPath1023&quot;)"><path d=" M -1.2214171657198323 -1.295566283079769 C -1.2490450239050856 -1.295566283079769 -1.2714418281674522 -1.3179630873421355 -1.2714418281674522 -1.3455909455273893 C -1.2714418281674522 -1.4408379028276583 -1.1412576466137654 -1.512993475942106 -0.8734256038692062 -1.566179697056416 C -0.6396303414540081 -1.6126025838078075 -0.32943741454880426 -1.638215210980989 0.0000050024662443526324 -1.638215210980989 C 0.3294474194812922 -1.638215210980989 0.6396103315890276 -1.6126426035377657 0.8734356088016941 -1.566179697056416 C 1.1412576466137647 -1.512993475942106 1.2714618380324305 -1.4408379028276583 1.2714618380324305 -1.3455909455273893 C 1.2714618380324305 -1.3179630873421355 1.2490650337700644 -1.295566283079769 1.2214371755848101 -1.295566283079769 C 1.1938093173995559 -1.295566283079769 1.1714125131371897 -1.3179630873421355 1.1714125131371897 -1.3455909455273893 C 1.1698217288713555 -1.358697407088666 1.109602040216911 -1.418436858983614 0.844251220729753 -1.4699422514396838 C 0.6177595590319074 -1.5139539494611003 0.3179517520508295 -1.5381658860857486 0.0000050024662443526324 -1.5381658860857486 C -0.31794174711834056 -1.5381658860857486 -0.6177695639643981 -1.5139539494611003 -0.8442412157972641 -1.4699822711696422 C -1.1096020402169116 -1.4184768787135722 -1.1698017190063776 -1.358737426818624 -1.1714025082047006 -1.3455609307299208 C -1.171419074994277 -1.31794870099197 -1.1938049315632684 -1.2955718005568366 -1.2214171657198358 -1.295566283079769 Z" fill="#404040" transform="matrix(1,0,0,1,0,0)" fill-rule="nonzero"></path><path d=" M -0.9761762605366183 -1.1498144265723824 C -1.0013273502500306 -1.1498148305490115 -1.022567562230443 -1.1684891808317057 -1.0257882729420944 -1.1934332048945384 C -1.029008983653745 -1.2183772289573709 -1.013208658775509 -1.241834161774681 -0.9888825247983135 -1.2482229425393412 C -0.7516055458767608 -1.3107337607338876 -0.3911678480091667 -1.3465914387763416 0.0000050024662443526324 -1.3465914387763416 C 0.39117785294165563 -1.3465914387763416 0.7516255557417395 -1.3107337607338874 0.9888925297308031 -1.2482229425393412 C 1.0154472032048862 -1.2410512268564615 1.0312302199771222 -1.2137859359887926 1.0242242862467115 -1.187187043498383 C 1.0172183525163008 -1.1605881510079734 0.9900520432137454 -1.144635366191234 0.9634099666799854 -1.1514752453656432 C 0.7374785812015525 -1.211014598610801 0.3773310263761558 -1.246522104016122 0.0000050024662443526324 -1.246522104016122 C -0.37732102144366697 -1.246522104016122 -0.7374485664040848 -1.2109945887458222 -0.9633899568150067 -1.1514752453656434 C -0.9675632990942131 -1.1503761098962 -0.971860606208419 -1.1498179307248713 -0.9761762605366183 -1.1498144265723824 Z" fill="#404040" transform="matrix(1,0,0,1,0,0)" fill-rule="nonzero"></path><path d=" M -1.2214171657198323 -1.3456309652573475 L -1.2214171657198323 -1.0078244246810573 C -1.2214171657198323 -0.8738383687813509 -0.674577570639916 -0.7652648414050358 0.0000050024662443526324 -0.7652648414050358 C 0.674587575572404 -0.7652648414050358 1.2213971558548518 -0.8738383687813509 1.2213971558548518 -1.0078244246810573 L 1.2213971558548518 -1.3456309652573475 C 1.2213971558548518 -1.2116949340200889 0.6745375509099558 -1.1030813869138156 -0.000015007398735056299 -1.1030813869138156 C -0.674567565707427 -1.1030813869138156 -1.2214171657198323 -1.2116949340200889 -1.2214171657198323 -1.3456309652573475 Z" fill="#4e888f" transform="matrix(1,0,0,1,0,0)" fill-rule="nonzero"></path><path d=" M 0.0000050024662443526324 -0.7152401789574153 C -0.32943741454880426 -0.7152401789574153 -0.6396303414540081 -0.740812786400639 -0.8734256038692062 -0.7872756928819884 C -1.1412576466137654 -0.8404619139962984 -1.2714418281674522 -0.912617487110746 -1.2714418281674522 -1.0078644444110152 L -1.2714418281674522 -1.3456309652573475 C -1.2714418281674522 -1.3732588234426013 -1.2490450239050856 -1.3956556277049676 -1.2214171657198323 -1.3956556277049676 C -1.193789307534578 -1.3956556277049676 -1.171392503272212 -1.3732588234426013 -1.171392503272212 -1.3456309652573475 C -1.1697717042089093 -1.3325144987635815 -1.1094519662295683 -1.2727550370036542 -0.8440611270124534 -1.2212596494800738 C -0.6175994801120762 -1.177297976121105 -0.31780167806348714 -1.153106049361436 0.0000050024662443526324 -1.153106049361436 C 0.31781168299597606 -1.153106049361436 0.6175694653146069 -1.177297976121105 0.8440511220799634 -1.2212596494800738 C 1.1092618725122678 -1.2727250222061857 1.169681659816503 -1.3324344593036652 1.171392503272211 -1.3456809899197952 C 1.171392503272211 -1.3464480347439922 1.1714125131371897 -1.3472184145456854 1.1714525328671477 -1.347992129324875 C 1.172780573383494 -1.375093449676146 1.195471925840228 -1.3961950039717195 1.2225982033867493 -1.3955544394829282 C 1.249724480933272 -1.394913874994137 1.2713945048845394 -1.3727647636811242 1.2714418281674527 -1.3456309652573475 L 1.2714418281674527 -1.0078244246810573 C 1.2714418281674518 -0.9125774673807879 1.141237636748786 -0.8404218942663404 0.8734155989367163 -0.7872356731520305 C 0.6396103315890276 -0.7407727666706808 0.32942740961631456 -0.7152401789574153 0.0000050024662443526324 -0.7152401789574153 Z M -1.171392503272212 -1.2187684212901821 L -1.171392503272212 -1.0078244246810573 C -1.1698017190063776 -0.994707958187291 -1.1096020402169116 -0.9349785112248323 -0.8442312108647752 -0.8834631138362729 C -0.6177595590319083 -0.8395014404773042 -0.317971761915809 -0.815289503852656 0.000015007398733279942 -0.815289503852656 C 0.3180017767132757 -0.815289503852656 0.6177695639643972 -0.8395014404773042 0.844241215797263 -0.8834631138362729 C 1.1095920352844209 -0.9349785112248323 1.1698117239388668 -0.994707958187291 1.1714025082047006 -1.007894459208484 L 1.1714025082047006 -1.2187684212901821 C 1.1053699537738413 -1.182530555813126 1.0063211221275536 -1.1514552355006644 0.8734256038692054 -1.1250622235932999 C 0.6395903217240488 -1.0786193269769293 0.32941740468382386 -1.0530267096687267 -0.0000050024662443526324 -1.0530267096687267 C -0.32942740961631367 -1.0530267096687267 -0.6396103315890285 -1.078589312179461 -0.873435608801696 -1.1250622235933 C -1.0063411319925333 -1.1514552355006644 -1.1053699537738422 -1.182530555813126 -1.171392503272212 -1.2187684212901821 Z" fill="#404040" transform="matrix(1,0,0,1,0,0)" fill-rule="nonzero"></path><path d=" M 0.20213465355209892 -0.4396242987360066 C 0.20213465355209892 -0.328007751667581 0.11165156433213763 -0.2375246624476206 0.00003501726371202274 -0.2375246624476206 C -0.1115815298047127 -0.23752466244762016 -0.20206461902467332 -0.328007751667581 -0.20206461902467332 -0.43962429873600617 C -0.2020646190246742 -0.5512408458044318 -0.11158152980471359 -0.6417239350243924 0.00003501726371202274 -0.6417239350243924 C 0.05363517339796586 -0.6417239350243928 0.10504000668337521 -0.6204313559060481 0.1429410405585645 -0.5825303220308591 C 0.180842074433754 -0.5446292881556707 0.20213465355209892 -0.4932244548702609 0.20213465355209892 -0.4396242987360066 Z" fill="#4e888f" transform="matrix(1,0,0,1,0,0)" fill-rule="nonzero"></path><path d=" M 0.0000050024662443526324 -0.1875 C -0.13923940278743463 -0.1875 -0.25211929626976204 -0.3003798934823272 -0.25211929626976204 -0.4396242987360066 C -0.25211929626976204 -0.578868703989686 -0.13923940278743463 -0.6917485974720128 0.0000050024662443526324 -0.6917485974720126 C 0.13924940771992356 -0.6917485974720126 0.25212930120225097 -0.5788687039896856 0.25212930120225097 -0.43962429873600617 C 0.2519639108420497 -0.300448457978552 0.13918084322368474 -0.18766539036019325 0.000005002466237247205 -0.1875 Z M 0.0000050024662443526324 -0.5916992725767722 C -0.08398368641692788 -0.5916992725767718 -0.15206997137452216 -0.523612987619178 -0.15206997137452127 -0.43962429873600617 C -0.15206997137452127 -0.3556356098528344 -0.083983686416927 -0.28754932489524054 0.0000050024662443526324 -0.287549324895241 C 0.08399369134941681 -0.287549324895241 0.1520799763070111 -0.3556356098528348 0.1520799763070111 -0.4396242987360066 C 0.15196974243354755 -0.523567284854837 0.08394798858506536 -0.5915890387033143 0.00000500246623991174 -0.5916992725767722 Z" fill="#404040" transform="matrix(1,0,0,1,0,0)" fill-rule="nonzero"></path><path d=" M 0.0000050024662443526324 -0.5224751446817553 C -0.02762285571900991 -0.5224751446817553 -0.05001965998137603 -0.5448719489441214 -0.05001965998137603 -0.5724998071293759 L -0.05001965998137603 -1.1030813869138156 C -0.05001965998137603 -1.1307092450990694 -0.02762285571900991 -1.1531060493614358 0.0000050024662443526324 -1.1531060493614358 C 0.027632860651498836 -1.1531060493614358 0.05002966491386496 -1.1307092450990694 0.05002966491386496 -1.1030813869138156 L 0.05002966491386496 -0.5724998071293752 C 0.05002966491386496 -0.5448719489441214 0.027632860651498836 -0.5224751446817553 0.0000050024662443526324 -0.5224751446817548 Z" fill="#404040" transform="matrix(1,0,0,1,0,0)" fill-rule="nonzero"></path><path d=" M 0.2970814628776819 -0.9363491869758971 C 0.29707041260965505 -0.9044650226367976 0.27121716236855 -0.8786252086023294 0.23933299659317298 -0.8786307331779906 C 0.20744883081779597 -0.8786362577536515 0.18160453666808296 -0.9044850294317822 0.1816045355512106 -0.9363691956857815 C 0.18160453443433822 -0.9682533619397808 0.2074488267731347 -0.9941021354285139 0.23933299254812512 -0.9941076622379198 C 0.2546513866522311 -0.9941103175322438 0.26934299532047445 -0.9880256003032488 0.28017379757127125 -0.9771929216140848 C 0.29100459982206917 -0.9663602429249207 0.29708677185650334 -0.951667580390133 0.29708146287768367 -0.9363491869758975 Z" fill="#404040" transform="matrix(1,0,0,1,0,0)" fill-rule="nonzero"></path><path d=" M 0.5569795941580482 -0.9478748692038286 C 0.5569917330797893 -0.9245168869716891 0.5429316341026829 -0.9034517571723114 0.5213559305744815 -0.8945027628951103 C 0.4997802270462792 -0.8855537686179089 0.47493823109038 -0.8904834048760651 0.4584144884041059 -0.9069928388139105 C 0.4418907457178338 -0.9235022727517557 0.4369395900488171 -0.9483399887146183 0.4458698893802937 -0.9699234368904882 C 0.4548001887117701 -0.9915068850663581 0.47585312998046314 -1.0055852280316233 0.4992111139635391 -1.005593324735893 C 0.5145276656542093 -1.0056065996166734 0.5292214354149252 -0.9995314263566788 0.5400565673771658 -0.9887056770857806 C 0.5508916993394066 -0.9778799278148824 0.5569795999107268 -0.9631914266471802 0.5569795941580473 -0.9478748692038286 Z" fill="#404040" transform="matrix(1,0,0,1,0,0)" fill-rule="nonzero"></path><path d=" M 0.8168577155734358 -0.9825619701450087 C 0.8168521895231802 -0.950673896932078 0.7909973190350588 -0.9248279856829134 0.7591092458220814 -0.9248335114140114 C 0.7272211726091038 -0.9248390371451094 0.7013752611011654 -0.9506939073745477 0.7013807865131068 -0.9825819805875813 C 0.7013863119250472 -1.0144700538006144 0.7272411818958018 -1.0403159655673253 0.7591292551088906 -1.0403104404745416 C 0.774442448300726 -1.0403077872313506 0.7891273989447578 -1.0342221002296461 0.7999535854034874 -1.023392161193288 C 0.8107797718622178 -1.0125622221569293 0.8168603692764211 -0.9978751633367727 0.8168577155734358 -0.9825619701450087 Z" fill="#404040" transform="matrix(1,0,0,1,0,0)" fill-rule="nonzero"></path><path d=" M 1.0767458419213134 -1.0403104404745416 C 1.0767498885037194 -1.0169555907147962 1.0626838463423476 -0.9958983478315079 1.0411075527015323 -0.9869589643851068 C 1.019531259060718 -0.9780195809387051 0.9946944898600409 -0.9829588031045463 0.9781801169734141 -0.999473175991155 C 0.9616657440867891 -1.015987548877764 0.9567265219209227 -1.0408243180784362 0.9656659053673016 -1.0624006117192604 C 0.9746052888136818 -1.0839769053600845 0.9956625316969561 -1.0980429475214772 1.01901738145673 -1.0980389009390952 C 1.0343303623781224 -1.0980468688433698 1.049018452144773 -1.0919673393935652 1.0598463662602775 -1.0811394252780597 C 1.070674280375783 -1.0703115111625545 1.076753809825587 -1.0556234213959041 1.0767458419213134 -1.0403104404745416 Z" fill="#404040" transform="matrix(1,0,0,1,0,0)" fill-rule="nonzero"></path><path d=" M -0.29708146287768367 -0.9363491869758971 C -0.29707593753169237 -0.9044568904602149 -0.2712186205302778 -0.8786070385595476 -0.23932632374869 -0.8786107219640108 C -0.20743402696710134 -0.878614405368474 -0.18158268171863634 -0.9044702293669997 -0.1815845231815596 -0.9363625263081324 C -0.18158636464448308 -0.9682548232492655 -0.2074406955538739 -0.994107661759297 -0.23933299254817042 -0.9941076622379196 C -0.254650572765015 -0.9941076624678031 -0.2693406385734465 -0.9880220927283708 -0.28017086520621026 -0.9771899897569669 C -0.29100109183897316 -0.9663578867855631 -0.2970841166511088 -0.9516667669628793 -0.29708146287768367 -0.9363491869758971 Z" fill="#404040" transform="matrix(1,0,0,1,0,0)" fill-rule="nonzero"></path><path d=" M -0.5569895990905398 -0.9478748692038286 C -0.5570098365576509 -0.9245042479393959 -0.542946753679112 -0.9034237822554619 -0.5213605329158589 -0.8944671410881044 C -0.4997743121526068 -0.8855104999207472 -0.4749180724631483 -0.8904424044210757 -0.4583868153890377 -0.9069622073070167 C -0.44185555831492707 -0.9234820101929581 -0.4369064266252022 -0.9483348255066796 -0.44584810378480444 -0.9699272491180787 C -0.4547897809444075 -0.9915196727294779 -0.47586049415088927 -1.0055973635369355 -0.499231123828516 -1.005593324735893 C -0.5311169121644915 -1.0055988532609041 -0.5569730269145126 -0.9797606537125112 -0.5569895990905398 -0.9478748692038286 Z" fill="#404040" transform="matrix(1,0,0,1,0,0)" fill-rule="nonzero"></path><path d=" M -0.8168777254384164 -0.9825619701450087 C -0.8168832505313461 -0.9506628457883745 -0.7910283800427927 -0.9247990170956292 -0.7591292556862406 -0.9247934916836528 C -0.7272301313296892 -0.9247879662716764 -0.7013663023783503 -0.9506428365015465 -0.7013607766473277 -0.9825419608580427 C -0.7013552509163041 -1.0144410852145387 -0.7272101208874915 -1.0403049144244714 -0.7591092452439316 -1.0403104404745416 C -0.7910037967955804 -1.0403049219116736 -0.8168611573173852 -1.0144565178708262 -0.8168777254384164 -0.9825619701450087 Z" fill="#404040" transform="matrix(1,0,0,1,0,0)" fill-rule="nonzero"></path><path d=" M -1.0767358369888247 -1.0403104404745416 C -1.0767479783833482 -1.0169456799488377 -1.0626821954864543 -0.995875000813866 -1.0410990676668999 -0.9869262145630924 C -1.0195159398473463 -0.9779774283123187 -0.9946672830362784 -0.9829134208566072 -0.9781430376167541 -0.9994319406193638 C -0.9616187921972299 -1.015950460382121 -0.9566741883894613 -1.0407974050815343 -0.9656154942459072 -1.0623836328997227 C -0.9745568001023532 -1.0839698607179113 -0.9956226033289508 -1.098042945032651 -1.018987366659285 -1.0980389009390954 C -1.0343013729480504 -1.0980442090871745 -1.0489899738733828 -1.0919644643145152 -1.0598204884437605 -1.0811377025211892 C -1.0706510030141374 -1.0703109407278635 -1.0767358379087808 -1.0556244476832566 -1.0767358369888247 -1.0403104404745416 Z" fill="#404040" transform="matrix(1,0,0,1,0,0)" fill-rule="nonzero"></path></g></g><defs><clipPath id="SvgjsClipPath1023"><path d=" M -1.2714418281674522 -1.638215210980989 h 2.5428836563349044 v 1.450715210980989 h -2.5428836563349044 Z"></path></clipPath></defs></svg>